<svg xmlns="http://www.w3.org/2000/svg" viewBox="0 0 64 64"><rect width="64" height="64" rx="4" ry="4" style="fill:#abd7ff" /><g style="opacity:.4"><path d="M50,28H14c-1.104553,0-2,.895386-2,2v20c0,1.104492.895447,2,2,2h36c1.104553,0,2-.895508,2-2v-20c0-1.104614-.895447-2-2-2Z" style="fill:#131313" /></g><path d="M50,12H14c-1.104492,0-2,.895386-2,2v8c0,1.104492.895508,2,2,2h36c1.104492,0,2-.895508,2-2v-8c0-1.104614-.895508-2-2-2ZM40,20h-22c-1.104492,0-2-.895508-2-2s.895508-2,2-2h22c1.104492,0,2,.895508,2,2s-.895508,2-2,2ZM46,20c-1.104492,0-2-.895508-2-2,0-1.104614.895508-2,2-2s2,.895386,2,2c0,1.104492-.895508,2-2,2Z" style="fill:#131313" /><path d="M40,16h-22c-1.104492,0-2,.895508-2,2s.895508,2,2,2h22c1.104492,0,2-.895508,2-2s-.895508-2-2-2Z" style="opacity:.4;fill:#131313" /></svg>