<?xml version="1.0" encoding="utf-8"?>
<svg version="1.1" xmlns="http://www.w3.org/2000/svg" xmlns:xlink="http://www.w3.org/1999/xlink" x="0px" y="0px"
	 viewBox="0 0 256 256" style="enable-background:new 0 0 256 256;" xml:space="preserve">
<style type="text/css">
	.st0{fill:#6198C6;}
	.st1{fill:#FFFFFF;}
	.st2{fill:#BF4C40;}
	.st3{fill:#5BBC40;}
	.st4{fill:#E29038;}
	.st5{opacity:0.4;fill:#FFFFFF;enable-background:new    ;}
</style>
<rect class="st0" width="256" height="256"/>
<g>
	<path class="st1" d="M219.8,30.2H36.4c-3.4,0-6.1,2.7-6.1,6.1v67.4h195.5V36.3C225.8,33,223,30.2,219.8,30.2z M213.5,91.5h-171
		V62.7h171.1v28.8H213.5z M213.7,53.8H90.2V39.5h123.5V53.8z"/>
	<path class="st1" d="M225.8,116.2H30.2v103.4c0,3.4,2.7,6.1,6.1,6.1h183.3c3.4,0,6.1-2.7,6.1-6.1L225.8,116.2L225.8,116.2z"/>
	<circle class="st2" cx="47.7" cy="46" r="5.3"/>
	<circle class="st3" cx="79.5" cy="46.1" r="5.3"/>
	<circle class="st4" cx="63.6" cy="46" r="5.3"/>
	<rect x="90.2" y="39.5" class="st5" width="123.5" height="14.4"/>
</g>
</svg>
